<svg xmlns="http://www.w3.org/2000/svg" width="21" height="21" fill="currentColor">
  <symbol id='floppy'>
   <g fill="currentColor">
      <path d="M.5 0h2.1538v2.1538H.5zM.5 2.154h2.1538v2.1538H.5z"/>
      <path d="M.5 4.3076h2.1538v2.1538H.5zM.5 6.4617h2.1538v2.1538H.5z"/>
      <path d="M.5 8.6152h2.1538v2.1538H.5zM.5 10.7693h2.1538v2.1538H.5zM.5 12.9231h2.1538v2.1538H.5zM.5 15.0769h2.1538v2.1538H.5zM.5 17.2307h2.1538v2.1538H.5zM.5 19.3848h2.1538v2.1538H.5z"/>
      <path d="M.5 21.5383h2.1538v2.1538H.5zM.5 23.6924h2.1538v2.1538H.5z"/>
      <path d="M.5 25.8459h2.1538v2.1538H.5zM24.1927 0v2.1538h-2.1538V0z"/>
      <path d="M22.0391 0v2.1538h-2.1538V0zM19.8841 0v2.1538h-2.1538V0z"/>
      <path d="M17.7305 0v2.1538h-2.1538V0z"/>
      <path d="M15.5768 0v2.1538H13.423V0z"/>
      <path d="M13.4232 0v2.1538h-2.1538V0z"/>
      <path d="M11.2695 0v2.1538H9.1157V0z"/>
      <path d="M9.1159 0v2.1538H6.962V0zM6.961 0v2.1538H4.807V0z"/>
      <path d="M4.8073 0v2.1538H2.6535V0zM26.3464 2.154v2.1538h-2.1538V2.154zM6.961 4.3076v2.1538H4.8072V4.3076z"/>
      <path d="M6.961 2.154v2.1538H4.8072V2.154zM6.961 6.4616v2.1538H4.807V6.4616zM22.0391 4.3076v2.1538h-2.1538V4.3076z"/>
      <path d="M22.0391 2.154v2.1538h-2.1538V2.154zM22.039 6.4617v2.1538h-2.1537V6.4617zM17.7305 4.3076v2.1538h-2.1538V4.3076z"/>
      <path d="M17.7305 2.154V4.308h-2.1538V2.154zM17.7305 6.4617v2.1538h-2.1538V6.4617zM22.0391 8.6152v2.1538h-2.1538V8.6152z"/>
      <path d="M19.8841 8.6152v2.1538h-2.1538V8.6152z"/>
      <path d="M17.7305 8.6152v2.1538h-2.1538V8.6152z"/>
      <path d="M15.5768 8.6152v2.1538H13.423V8.6152z"/>
      <path d="M13.4232 8.6152v2.1538h-2.1538V8.6152z"/>
      <path d="M11.2695 8.6152v2.1538H9.1157V8.6152z"/>
      <path d="M9.116 8.6152v2.1538H6.962V8.6152zM6.961 8.6152v2.1538H4.8072V8.6152zM24.1927 15.0769v2.1538h-2.1538v-2.1538z"/>
      <path d="M22.0391 15.0769v2.1538h-2.1538v-2.1538zM19.8841 15.0769v2.1538h-2.1538v-2.1538z"/>
      <path d="M17.7305 15.0769v2.1538h-2.1538v-2.1538z"/>
      <path d="M15.5768 15.0769v2.1538H13.423v-2.1538z"/>
      <path d="M13.4232 15.0769v2.1538h-2.1538v-2.1538z"/>
      <path d="M11.2695 15.0769v2.1538H9.1157v-2.1538z"/>
      <path d="M9.1159 15.077v2.1537H6.962V15.077zM6.961 15.0769v2.1538H4.807v-2.1538zM24.1927 17.2307v2.1538h-2.1538v-2.1538zM6.961 17.2307v2.1538H4.807v-2.1538zM24.1927 19.3848v2.1538h-2.1538v-2.1538zM6.961 19.3848v2.1538H4.807v-2.1538z"/>
      <path d="M24.1927 21.5383v2.1538h-2.1538v-2.1538zM6.961 21.5383v2.1538H4.807v-2.1538zM6.961 23.6924v2.1538H4.807v-2.1538zM24.1927 23.6924v2.1538h-2.1538v-2.1538z"/>
      <path d="M26.3464 25.8459v2.1538h-2.1538v-2.1538z"/>
      <path d="M24.1927 25.8459v2.1538h-2.1538v-2.1538z"/>
      <path d="M22.0391 25.8459v2.1538h-2.1538v-2.1538zM19.8841 25.8459v2.1538h-2.1538v-2.1538z"/>
      <path d="M17.7305 25.8459v2.1538h-2.1538v-2.1538z"/>
      <path d="M15.5768 25.8459v2.1538H13.423v-2.1538z"/>
      <path d="M13.4232 25.8459v2.1538h-2.1538v-2.1538z"/>
      <path d="M11.2695 25.8459v2.1538H9.1157v-2.1538z"/>
      <path d="M9.1159 25.846v2.1537H6.962V25.846zM6.961 25.8459v2.1538H4.807v-2.1538z"/>
      <path d="M4.8073 25.846v2.1537H2.6535V25.846zM28.5 28h-2.1538v-2.1538H28.5zM28.5 25.8459h-2.1538v-2.1538H28.5z"/>
      <path d="M28.5 23.6924h-2.1538v-2.1538H28.5zM28.5 21.5383h-2.1538v-2.1538H28.5z"/>
      <path d="M28.5 19.3848h-2.1538V17.231H28.5zM28.5 17.2307h-2.1538v-2.1538H28.5z"/>
      <path d="M28.5 15.0769h-2.1538v-2.1538H28.5zM28.5 12.9231h-2.1538v-2.1538H28.5zM28.5 10.7693h-2.1538V8.6155H28.5zM28.5 8.6153h-2.1538V6.4615H28.5z"/>
      <path d="M28.5 6.4616h-2.1538V4.3078H28.5z"/>
   </g>
  </symbol>
</svg>