<?xml version="1.0" standalone="no"?>
<!DOCTYPE svg PUBLIC "-//W3C//DTD SVG 20010904//EN"
 "http://www.w3.org/TR/2001/REC-SVG-20010904/DTD/svg10.dtd">
<svg version="1.0" xmlns="http://www.w3.org/2000/svg"
 width="700.000000pt" height="700.000000pt" viewBox="0 0 700.000000 700.000000"
 preserveAspectRatio="xMidYMid meet">
<metadata>
Created by potrace 1.14, written by Peter Selinger 2001-2017
</metadata>
<g transform="translate(0.000000,700.000000) scale(0.100000,-0.100000)"
fill="#000000" stroke="none">
<path d="M0 3500 l0 -3500 3500 0 3500 0 0 3500 0 3500 -3500 0 -3500 0 0
-3500z m6120 2619 c3 -4 5 -594 5 -1311 l0 -1303 -437 -3 -438 -2 0 -438 0
-437 437 0 438 0 0 -875 0 -875 -872 0 c-574 0 -874 3 -876 10 -2 5 -3 201 -3
435 l1 425 438 3 437 2 -2 438 -3 437 -425 1 c-234 0 -430 -3 -435 -7 -7 -5
-10 -159 -10 -438 l0 -431 -437 0 -438 0 0 -438 0 -437 -1303 0 c-716 0 -1307
3 -1312 7 -7 4 -10 157 -10 435 l0 428 437 3 438 2 2 438 3 437 435 0 435 0 0
438 0 437 -437 0 -438 0 0 -438 0 -437 -437 0 -438 0 -1 1745 c0 960 1 1747 2
1750 3 8 5238 7 5244 -1z"/>
<path d="M4375 4813 l0 -438 438 0 437 0 0 437 0 438 -438 0 -437 0 0 -437z"/>
<path d="M2631 4370 c-4 -3 -7 -198 -6 -435 l0 -430 437 -3 438 -2 2 -438 3
-437 433 0 c237 0 433 2 433 5 1 3 2 200 3 438 l1 432 -437 0 -438 0 -2 437
-3 438 -428 0 c-236 0 -432 -2 -436 -5z"/>
</g>
</svg>
